<svg width="34" height="34" viewBox="0 0 34 34" fill="none" xmlns="http://www.w3.org/2000/svg">
<circle cx="17" cy="17" r="17" fill="#9B9B9B"/>
<path d="M28.3667 12.1787C27.6382 12.5017 26.8545 12.7202 26.0327 12.8178C26.8718 12.315 27.5158 11.5195 27.8197 10.5701C27.0345 11.0359 26.1645 11.3738 25.2393 11.5559C24.4981 10.7665 23.442 10.2731 22.2726 10.2731C20.0288 10.2731 18.2091 12.0929 18.2091 14.3366C18.2091 14.6551 18.2451 14.9651 18.3148 15.2627C14.9377 15.0933 11.9434 13.4757 9.93908 11.0165C9.58937 11.6165 9.38876 12.315 9.38876 13.0596C9.38876 14.469 10.1067 15.7133 11.1964 16.4418C10.5306 16.4209 9.90363 16.2382 9.35603 15.933C9.35573 15.9503 9.35573 15.9676 9.35573 15.9845C9.35573 17.9534 10.757 19.5956 12.6155 19.9686C12.2749 20.062 11.9152 20.1114 11.5452 20.1114C11.2828 20.1114 11.0285 20.0862 10.7806 20.0389C11.2976 21.6529 12.798 22.8278 14.5765 22.8609C13.1856 23.9509 11.4337 24.6003 9.52937 24.6003C9.20208 24.6003 8.87783 24.5812 8.56055 24.5433C10.3579 25.6967 12.4943 26.3692 14.789 26.3692C22.2632 26.3692 26.3506 20.1774 26.3506 14.8072C26.3506 14.6312 26.3466 14.4557 26.3388 14.2818C27.1333 13.709 27.8221 12.9935 28.3667 12.1787Z" fill="white"/>
</svg>
